<svg width="25" height="24" viewBox="0 0 25 24" fill="none" xmlns="http://www.w3.org/2000/svg">
<path fill-rule="evenodd" clip-rule="evenodd" d="M12.5 2C14 2 15.2 2 16.177 2.074C16.0598 2.36865 15.9997 2.6829 16 3V3.5H15.5C14.837 3.5 14.2011 3.76339 13.7322 4.23223C13.2634 4.70107 13 5.33696 13 6C13 6.66304 13.2634 7.29893 13.7322 7.76777C14.2011 8.23661 14.837 8.5 15.5 8.5H16V9C16 9.52471 16.1651 10.0361 16.4719 10.4618C16.7787 10.8874 17.2117 11.2058 17.7094 11.3717C18.2072 11.5376 18.7446 11.5427 19.2454 11.3863C19.7463 11.2298 20.1852 10.9198 20.5 10.5V14C20.5 17.771 20.5 19.657 19.328 20.828C18.156 21.999 16.271 22 12.5 22C8.729 22 6.843 22 5.672 20.828C4.501 19.656 4.5 17.771 4.5 14V10C4.5 6.229 4.5 4.343 5.672 3.172C6.844 2.001 8.729 2 12.5 2ZM8.5 11C8.23478 11 7.98043 11.1054 7.79289 11.2929C7.60536 11.4804 7.5 11.7348 7.5 12C7.5 12.2652 7.60536 12.5196 7.79289 12.7071C7.98043 12.8946 8.23478 13 8.5 13H12.5C12.7652 13 13.0196 12.8946 13.2071 12.7071C13.3946 12.5196 13.5 12.2652 13.5 12C13.5 11.7348 13.3946 11.4804 13.2071 11.2929C13.0196 11.1054 12.7652 11 12.5 11H8.5ZM8.5 14C8.23478 14 7.98043 14.1054 7.79289 14.2929C7.60536 14.4804 7.5 14.7348 7.5 15C7.5 15.2652 7.60536 15.5196 7.79289 15.7071C7.98043 15.8946 8.23478 16 8.5 16H14.5C14.7652 16 15.0196 15.8946 15.2071 15.7071C15.3946 15.5196 15.5 15.2652 15.5 15C15.5 14.7348 15.3946 14.4804 15.2071 14.2929C15.0196 14.1054 14.7652 14 14.5 14H8.5ZM8.5 17C8.23478 17 7.98043 17.1054 7.79289 17.2929C7.60536 17.4804 7.5 17.7348 7.5 18C7.5 18.2652 7.60536 18.5196 7.79289 18.7071C7.98043 18.8946 8.23478 19 8.5 19H12.5C12.7652 19 13.0196 18.8946 13.2071 18.7071C13.3946 18.5196 13.5 18.2652 13.5 18C13.5 17.7348 13.3946 17.4804 13.2071 17.2929C13.0196 17.1054 12.7652 17 12.5 17H8.5Z" fill="white"/>
<path d="M18.5 3V9M21.5 6H15.5" stroke="white" stroke-width="2" stroke-linecap="round"/>
</svg>
