<svg width="13" height="14" viewBox="0 0 13 14" fill="none" xmlns="http://www.w3.org/2000/svg">
<path d="M4.48118 0.640325L4.29414 1.0144H1.72905C1.47967 1.0144 1.27482 1.09455 1.1145 1.25488C0.954182 1.4152 0.874023 1.62005 0.874023 1.86943C0.874023 2.1188 0.954182 2.32366 1.1145 2.48398C1.27482 2.6443 1.47967 2.72446 1.72905 2.72446H11.9894C12.2388 2.72446 12.4436 2.6443 12.604 2.48398C12.7643 2.32366 12.8444 2.1188 12.8444 1.86943C12.8444 1.62005 12.7643 1.4152 12.604 1.25488C12.4436 1.09455 12.2388 1.0144 11.9894 1.0144H9.42432L9.23728 0.640325C9.07697 0.337465 8.81868 0.177155 8.46241 0.15937H5.25605C4.89978 0.177155 4.64149 0.337465 4.48118 0.640325ZM11.9894 3.57949H1.72905L2.29017 12.6375C2.32579 12.9759 2.45939 13.2609 2.69096 13.4925C2.94034 13.7241 3.23426 13.8398 3.57271 13.8398H10.1458C10.4842 13.8398 10.7781 13.7241 11.0275 13.4925C11.2591 13.2609 11.3927 12.9759 11.4283 12.6375L11.9894 3.57949Z" fill="#DC2626"/>
</svg>
