<svg width="16" height="15" viewBox="0 0 16 15" fill="none" xmlns="http://www.w3.org/2000/svg">
<path d="M7.33325 2.16665H2.66659C2.31296 2.16665 1.97382 2.30713 1.72378 2.55718C1.47373 2.80723 1.33325 3.14637 1.33325 3.49999V12.8333C1.33325 13.1869 1.47373 13.5261 1.72378 13.7761C1.97382 14.0262 2.31296 14.1667 2.66659 14.1667H11.9999C12.3535 14.1667 12.6927 14.0262 12.9427 13.7761C13.1928 13.5261 13.3333 13.1869 13.3333 12.8333V8.16666M12.3333 1.16665C12.5985 0.901438 12.9582 0.752441 13.3333 0.752441C13.7083 0.752441 14.068 0.901438 14.3333 1.16665C14.5985 1.43187 14.7475 1.79158 14.7475 2.16665C14.7475 2.54173 14.5985 2.90144 14.3333 3.16665L7.99992 9.49999L5.33325 10.1667L5.99992 7.49999L12.3333 1.16665Z" stroke="#046A77" stroke-width="1.33333" stroke-linecap="round" stroke-linejoin="round"/>
</svg>
