<svg width="75" height="76" viewBox="0 0 75 76" fill="none" xmlns="http://www.w3.org/2000/svg">
<rect x="1.03437" y="0.534366" width="72.9313" height="74.9313" rx="17.6341" stroke="white" stroke-width="1.06873"/>
<path d="M30.5258 31.3207C30.542 28.415 30.6708 26.8414 31.6973 25.8149C32.8712 24.6411 34.7604 24.6411 38.539 24.6411L39.8749 24.6411C43.6534 24.6411 45.5427 24.6411 46.7165 25.8149C47.8904 26.9888 47.8904 28.878 47.8904 32.6566L47.8904 43.3439C47.8904 47.1224 47.8904 49.0117 46.7165 50.1855C45.5427 51.3594 43.6534 51.3594 39.8749 51.3594L38.539 51.3594C34.7604 51.3594 32.8712 51.3594 31.6973 50.1855C30.6708 49.159 30.542 47.5854 30.5258 44.6798" stroke="white" stroke-width="1.6031" stroke-linecap="round"/>
<path d="M21.1718 37.9999L38.5387 37.9999M38.5387 37.9999L33.863 42.0077M38.5387 37.9999L33.863 33.9922" stroke="white" stroke-width="1.6031" stroke-linecap="round" stroke-linejoin="round"/>
</svg>
