<svg width="32" height="31" viewBox="0 0 32 31" fill="none" xmlns="http://www.w3.org/2000/svg">
<rect x="0.428467" y="0.142578" width="30.8571" height="30.8571" rx="15.4286" fill="#402BA3"/>
<path fill-rule="evenodd" clip-rule="evenodd" d="M15.8571 18.7855C16.2121 18.7855 16.4999 18.4977 16.4999 18.1426V8.7376L17.9404 10.4182C18.1715 10.6877 18.5773 10.7189 18.8469 10.4879C19.1164 10.2568 19.1477 9.85099 18.9166 9.58143L16.3452 6.58142C16.223 6.43894 16.0447 6.35693 15.8571 6.35693C15.6694 6.35693 15.4911 6.43894 15.369 6.58142L12.7976 9.58143C12.5665 9.85099 12.5977 10.2568 12.8673 10.4879C13.1368 10.7189 13.5427 10.6877 13.7737 10.4182L15.2142 8.7376L15.2142 18.1426C15.2142 18.4977 15.502 18.7855 15.8571 18.7855Z" fill="white"/>
<path d="M19.2856 12.9998C18.6838 12.9998 18.3828 12.9998 18.1666 13.1442C18.073 13.2068 17.9927 13.2871 17.9301 13.3808C17.7857 13.5969 17.7857 13.8979 17.7857 14.4998L17.7857 18.1426C17.7857 19.2078 16.9222 20.0712 15.8571 20.0712C14.792 20.0712 13.9285 19.2078 13.9285 18.1426L13.9285 14.4998C13.9285 13.8979 13.9285 13.5969 13.7841 13.3807C13.7215 13.2871 13.6412 13.2068 13.5476 13.1443C13.3314 12.9998 13.0304 12.9998 12.4285 12.9998C10.0041 12.9998 8.79195 12.9998 8.0388 13.7529C7.28564 14.5061 7.28564 15.7181 7.28564 18.1425V18.9996C7.28564 21.424 7.28564 22.6361 8.0388 23.3893C8.79195 24.1425 10.0041 24.1425 12.4285 24.1425H19.2856C21.71 24.1425 22.9222 24.1425 23.6753 23.3893C24.4285 22.6362 24.4285 21.424 24.4285 18.9996V18.1425C24.4285 15.7181 24.4285 14.5061 23.6753 13.7529C22.9222 12.9998 21.71 12.9998 19.2856 12.9998Z" fill="white"/>
</svg>
