<svg width="32" height="31" viewBox="0 0 32 31" fill="none" xmlns="http://www.w3.org/2000/svg">
<rect x="0.428711" y="0.142334" width="30.8571" height="30.8571" rx="15.4286" fill="#402BA3"/>
<path d="M20.5975 18.1924L21.8235 14.5143C22.8945 11.3011 23.4301 9.69457 22.582 8.84652C21.734 7.99847 20.1274 8.53399 16.9143 9.60503L13.2362 10.8311C10.6429 11.6955 9.34621 12.1277 8.97774 12.7615C8.62721 13.3645 8.62721 14.1092 8.97774 14.7121C9.34621 15.346 10.6429 15.7782 13.2362 16.6426C13.6526 16.7814 13.8608 16.8508 14.0348 16.9673C14.2034 17.0802 14.3483 17.2251 14.4612 17.3937C14.5777 17.5678 14.6471 17.776 14.7859 18.1924C15.6504 20.7857 16.0826 22.0823 16.7164 22.4508C17.3193 22.8013 18.064 22.8013 18.667 22.4508C19.3008 22.0823 19.733 20.7857 20.5975 18.1924Z" stroke="white" stroke-width="1.28571"/>
<path d="M18.9412 13.3959C19.1936 13.1462 19.1959 12.7392 18.9462 12.4868C18.6966 12.2343 18.2896 12.2321 18.0371 12.4817L18.9412 13.3959ZM14.9777 17.3157L18.9412 13.3959L18.0371 12.4817L14.0736 16.4016L14.9777 17.3157Z" fill="white"/>
</svg>
