<svg width="15" height="14" viewBox="0 0 15 14" fill="none" xmlns="http://www.w3.org/2000/svg">
<path d="M5.70964 8.16659C5.90302 8.16659 6.08849 8.08976 6.22523 7.95302C6.36198 7.81627 6.4388 7.63081 6.4388 7.43742C6.4388 7.24403 6.36198 7.05857 6.22523 6.92182C6.08849 6.78507 5.90302 6.70825 5.70964 6.70825C5.51625 6.70825 5.33078 6.78507 5.19404 6.92182C5.05729 7.05857 4.98047 7.24403 4.98047 7.43742C4.98047 7.63081 5.05729 7.81627 5.19404 7.95302C5.33078 8.08976 5.51625 8.16659 5.70964 8.16659ZM5.70964 10.2083C5.90302 10.2083 6.08849 10.1314 6.22523 9.99468C6.36198 9.85794 6.4388 9.67247 6.4388 9.47909C6.4388 9.2857 6.36198 9.10023 6.22523 8.96349C6.08849 8.82674 5.90302 8.74992 5.70964 8.74992C5.51625 8.74992 5.33078 8.82674 5.19404 8.96349C5.05729 9.10023 4.98047 9.2857 4.98047 9.47909C4.98047 9.67247 5.05729 9.85794 5.19404 9.99468C5.33078 10.1314 5.51625 10.2083 5.70964 10.2083ZM8.48047 7.43742C8.48047 7.63081 8.40365 7.81627 8.2669 7.95302C8.13016 8.08976 7.94469 8.16659 7.7513 8.16659C7.55791 8.16659 7.37245 8.08976 7.2357 7.95302C7.09896 7.81627 7.02214 7.63081 7.02214 7.43742C7.02214 7.24403 7.09896 7.05857 7.2357 6.92182C7.37245 6.78507 7.55791 6.70825 7.7513 6.70825C7.94469 6.70825 8.13016 6.78507 8.2669 6.92182C8.40365 7.05857 8.48047 7.24403 8.48047 7.43742ZM7.7513 10.2083C7.94469 10.2083 8.13016 10.1314 8.2669 9.99468C8.40365 9.85794 8.48047 9.67247 8.48047 9.47909C8.48047 9.2857 8.40365 9.10023 8.2669 8.96349C8.13016 8.82674 7.94469 8.74992 7.7513 8.74992C7.55791 8.74992 7.37245 8.82674 7.2357 8.96349C7.09896 9.10023 7.02214 9.2857 7.02214 9.47909C7.02214 9.67247 7.09896 9.85794 7.2357 9.99468C7.37245 10.1314 7.55791 10.2083 7.7513 10.2083ZM10.5221 7.43742C10.5221 7.63081 10.4453 7.81627 10.3086 7.95302C10.1718 8.08976 9.98636 8.16659 9.79297 8.16659C9.59958 8.16659 9.41411 8.08976 9.27737 7.95302C9.14062 7.81627 9.0638 7.63081 9.0638 7.43742C9.0638 7.24403 9.14062 7.05857 9.27737 6.92182C9.41411 6.78507 9.59958 6.70825 9.79297 6.70825C9.98636 6.70825 10.1718 6.78507 10.3086 6.92182C10.4453 7.05857 10.5221 7.24403 10.5221 7.43742Z" fill="black" fill-opacity="0.45"/>
<path fill-rule="evenodd" clip-rule="evenodd" d="M5.41797 1.89575C5.534 1.89575 5.64528 1.94185 5.72733 2.02389C5.80937 2.10594 5.85547 2.21722 5.85547 2.33325V2.77075H9.64714V2.33325C9.64714 2.21722 9.69323 2.10594 9.77528 2.02389C9.85732 1.94185 9.9686 1.89575 10.0846 1.89575C10.2007 1.89575 10.3119 1.94185 10.394 2.02389C10.476 2.10594 10.5221 2.21722 10.5221 2.33325V2.77542C10.6108 2.77775 10.6934 2.78203 10.7701 2.78825C10.9917 2.80575 11.1994 2.84542 11.396 2.94575C11.6979 3.09956 11.9433 3.34501 12.0971 3.64692C12.1975 3.8435 12.2371 4.05117 12.2546 4.27284C12.2721 4.48575 12.2721 4.74534 12.2721 5.05742V9.52575C12.2721 9.83783 12.2721 10.0974 12.2546 10.3103C12.2371 10.532 12.1975 10.7397 12.0971 10.9363C11.9435 11.2381 11.6982 11.4835 11.3966 11.6374C11.1994 11.7378 10.9917 11.7774 10.7701 11.7949C10.5571 11.8124 10.2976 11.8124 9.98605 11.8124H5.51714C5.20505 11.8124 4.94547 11.8124 4.73255 11.7949C4.51089 11.7774 4.30322 11.7378 4.10664 11.6374C3.80491 11.4839 3.55947 11.2389 3.40547 10.9374C3.30514 10.7403 3.26547 10.5326 3.24797 10.3109C3.23047 10.098 3.23047 9.83842 3.23047 9.52692V5.05742C3.23047 4.74534 3.23047 4.48575 3.24797 4.27284C3.26547 4.05117 3.30514 3.8435 3.40547 3.64692C3.55928 3.34501 3.80473 3.09956 4.10664 2.94575C4.30322 2.84542 4.51089 2.80575 4.73255 2.78825C4.80916 2.78203 4.8918 2.77775 4.98047 2.77542V2.33325C4.98047 2.2758 4.99178 2.21891 5.01377 2.16583C5.03576 2.11275 5.06798 2.06452 5.10861 2.02389C5.14924 1.98327 5.19746 1.95104 5.25054 1.92905C5.30362 1.90707 5.36052 1.89575 5.41797 1.89575ZM4.98047 3.79159V3.65042C4.92148 3.65223 4.86254 3.65554 4.80372 3.66034C4.6363 3.67375 4.55639 3.69825 4.50389 3.72509C4.36646 3.79503 4.25475 3.90674 4.1848 4.04417C4.15797 4.09667 4.13347 4.17659 4.12005 4.344C4.10605 4.51667 4.10547 4.74067 4.10547 5.07492V5.39575H11.3971V5.07492C11.3971 4.74125 11.3971 4.51667 11.3826 4.344C11.3691 4.17659 11.3446 4.09667 11.3178 4.04417C11.2479 3.90674 11.1361 3.79503 10.9987 3.72509C10.9462 3.69825 10.8663 3.67375 10.6983 3.66034C10.6397 3.65555 10.5809 3.65224 10.5221 3.65042V3.79159C10.5221 3.90762 10.476 4.0189 10.394 4.10094C10.3119 4.18299 10.2007 4.22909 10.0846 4.22909C9.9686 4.22909 9.85732 4.18299 9.77528 4.10094C9.69323 4.0189 9.64714 3.90762 9.64714 3.79159V3.64575H5.85547V3.79159C5.85547 3.90762 5.80937 4.0189 5.72733 4.10094C5.64528 4.18299 5.534 4.22909 5.41797 4.22909C5.30194 4.22909 5.19066 4.18299 5.10861 4.10094C5.02656 4.0189 4.98047 3.90762 4.98047 3.79159ZM11.3971 5.97908H4.10547V9.50825C4.10547 9.84192 4.10547 10.0665 4.12005 10.2386C4.13347 10.4066 4.15797 10.4865 4.1848 10.539C4.2548 10.6767 4.36622 10.7881 4.50389 10.8581C4.55639 10.8849 4.6363 10.9094 4.80372 10.9228C4.97639 10.9368 5.20039 10.9374 5.53464 10.9374H9.96797C10.3016 10.9374 10.5262 10.9374 10.6983 10.9228C10.8663 10.9094 10.9462 10.8849 10.9987 10.8581C11.1361 10.7881 11.2479 10.6764 11.3178 10.539C11.3446 10.4865 11.3691 10.4066 11.3826 10.2386C11.3966 10.0665 11.3971 9.84192 11.3971 9.50825V5.97908Z" fill="black" fill-opacity="0.45"/>
<path fill-rule="evenodd" clip-rule="evenodd" d="M6.43799 4.52075C6.43799 4.40472 6.48408 4.29344 6.56613 4.21139C6.64818 4.12935 6.75946 4.08325 6.87549 4.08325H8.62549C8.74152 4.08325 8.8528 4.12935 8.93485 4.21139C9.01689 4.29344 9.06299 4.40472 9.06299 4.52075C9.06299 4.63678 9.01689 4.74806 8.93485 4.83011C8.8528 4.91216 8.74152 4.95825 8.62549 4.95825H6.87549C6.75946 4.95825 6.64818 4.91216 6.56613 4.83011C6.48408 4.74806 6.43799 4.63678 6.43799 4.52075Z" fill="black" fill-opacity="0.45"/>
</svg>
