<svg width="30" height="30" viewBox="0 0 30 30" fill="none" xmlns="http://www.w3.org/2000/svg">
<path fill-rule="evenodd" clip-rule="evenodd" d="M14.8572 29.2853C22.747 29.2853 29.143 22.8894 29.143 14.9996C29.143 7.1098 22.747 0.713867 14.8572 0.713867C6.96747 0.713867 0.571533 7.1098 0.571533 14.9996C0.571533 22.8894 6.96747 29.2853 14.8572 29.2853ZM15.9287 10.7139C15.9287 10.1221 15.449 9.64244 14.8572 9.64244C14.2655 9.64244 13.7858 10.1221 13.7858 10.7139L13.7858 13.9282H10.5715C9.9798 13.9282 9.5001 14.4079 9.5001 14.9996C9.5001 15.5914 9.9798 16.071 10.5715 16.071H13.7858V19.2853C13.7858 19.877 14.2655 20.3567 14.8572 20.3567C15.449 20.3567 15.9287 19.877 15.9287 19.2853L15.9287 16.071H19.143C19.7347 16.071 20.2144 15.5914 20.2144 14.9996C20.2144 14.4079 19.7347 13.9282 19.143 13.9282H15.9287V10.7139Z" fill="#402BA3"/>
</svg>
