<svg width="25" height="25" viewBox="0 0 25 25" fill="none" xmlns="http://www.w3.org/2000/svg">
<rect x="0.778729" y="0.61491" width="23.2951" height="23.2951" rx="3.64754" stroke="#FF0000" stroke-width="0.704918"/>
<path d="M8.90284 18.6067C8.51514 18.6067 8.18335 18.4688 7.9075 18.193C7.63164 17.9171 7.49347 17.5851 7.493 17.1969V8.03297H6.78809V6.62313H10.3127V5.91821H14.5422V6.62313H18.0668V8.03297H17.3619V17.1969C17.3619 17.5846 17.2239 17.9166 16.9481 18.193C16.6722 18.4693 16.3402 18.6072 15.952 18.6067H8.90284ZM15.952 8.03297H8.90284V17.1969H15.952V8.03297ZM10.3127 15.7871H11.7225V9.4428H10.3127V15.7871ZM13.1323 15.7871H14.5422V9.4428H13.1323V15.7871Z" fill="#FF0000"/>
</svg>
